<svg width="41" height="29" viewBox="0 0 41 29" fill="none" xmlns="http://www.w3.org/2000/svg">
<g clip-path="url(#clip0_7_43)">
<path d="M20.4912 17.3952C13.9565 11.8606 7.45274 6.35215 0.929108 0.826263C1.5286 0.183615 2.30064 0.00874543 3.12577 0.00437368C5.59675 -0.00436982 8.06772 1.93389e-06 10.5387 1.93389e-06C19.6351 1.93389e-06 28.7336 1.93389e-06 37.83 0.00218781C38.6618 0.00218781 39.4294 0.196731 40.082 0.802218C33.5561 6.3303 27.0435 11.8453 20.4912 17.3952Z" fill="#344188"/>
<path d="M15.4121 15.9001C17.1066 17.3646 18.7944 18.8248 20.4934 20.2937C22.1812 18.8335 23.8625 17.3799 25.5702 15.9022C30.406 20.0008 35.2285 24.0862 40.0665 28.1869C39.4559 28.7945 38.7082 28.9825 37.9096 28.9934C36.735 29.0109 35.5581 28.9978 34.3835 28.9978C23.9775 28.9978 13.5715 29 3.16559 28.9956C2.33603 28.9956 1.56178 28.812 0.902557 28.1978C5.73611 24.1015 10.5564 20.0139 15.4121 15.9001Z" fill="#344188"/>
<path d="M41 26.613C36.266 22.6369 31.5696 18.6914 26.8489 14.7262C31.5696 10.6671 36.2616 6.63413 41 2.56184C41 10.6102 41 18.5843 41 26.613Z" fill="#344188"/>
<path d="M0 2.58589C4.71409 6.63413 9.39943 10.6583 14.1379 14.7262C9.42597 18.6849 4.72958 22.626 0 26.5999C0 18.5931 0 10.6146 0 2.58589Z" fill="#344188"/>
</g>
<defs>
<clipPath id="clip0_7_43">
<rect width="41" height="29" fill="white"/>
</clipPath>
</defs>
</svg>
