<svg width="23" height="38" viewBox="0 0 23 38" fill="none" xmlns="http://www.w3.org/2000/svg">
<g clip-path="url(#clip0_7_51)">
<path d="M23.0003 11.4733C22.9708 13.2964 22.4387 15.004 21.7503 16.6309C19.5062 21.9385 17.1897 27.2161 14.88 32.496C14.187 34.079 13.3922 35.6159 12.7265 37.2105C12.4706 37.8266 12.0698 37.9697 11.5263 37.9974C10.9217 38.0297 10.5232 37.7182 10.2763 37.1828C9.92309 36.419 9.57437 35.6552 9.2347 34.8844C6.63511 28.9953 4.00156 23.12 1.45632 17.2032C0.863035 15.8232 0.448641 14.3348 0.16332 12.8533C-0.316743 10.3541 0.299187 7.97956 1.56728 5.84729C4.1261 1.54123 7.96887 -0.438732 12.851 0.0804881C18.4102 0.673553 22.1262 5.13423 22.8169 9.79798C22.9006 10.3541 22.9414 10.9149 23.0003 11.4733ZM11.5354 7.07496C8.99467 7.06804 6.94081 9.1103 6.92043 11.6649C6.90232 14.1825 9.01278 16.3402 11.4924 16.3379C13.9765 16.3355 16.0326 14.261 16.0394 11.7479C16.0462 9.13338 14.0693 7.08188 11.5354 7.07496Z" fill="#344188"/>
</g>
<defs>
<clipPath id="clip0_7_51">
<rect width="23" height="38" fill="white"/>
</clipPath>
</defs>
</svg>
